HIERARCHY
ROOT Hips
{
	OFFSET -0.087744 88.518600 4.106688
	CHANNELS 6 Xposition Yposition Zposition Zrotation Yrotation Xrotation 
	JOINT Spine
	{
		OFFSET 0.000000 8.814246 -2.080107
		CHANNELS 3 Zrotation Yrotation Xrotation
		JOINT Spine1
		{
			OFFSET -0.000000 8.844141 -0.000000
			CHANNELS 3 Zrotation Yrotation Xrotation
			JOINT Spine2
			{
				OFFSET 0.000000 11.682268 0.000000
				CHANNELS 3 Zrotation Yrotation Xrotation
				JOINT Spine3
				{
					OFFSET 0.000000 11.746700 0.000000
					CHANNELS 3 Zrotation Yrotation Xrotation
					JOINT Neck
					{
						OFFSET 0.000000 17.658264 -0.000000
						CHANNELS 3 Zrotation Yrotation Xrotation
						JOINT Neck1
						{
							OFFSET -0.000000 5.101515 -0.000000
							CHANNELS 3 Zrotation Yrotation Xrotation
							JOINT Head
							{
								OFFSET -0.000000 5.101515 -0.000000
								CHANNELS 3 Zrotation Yrotation Xrotation
								JOINT HeadEnd
								{
									OFFSET 0.000000 11.655085 0.000000
									CHANNELS 3 Zrotation Yrotation Xrotation
									End Site
									{
										OFFSET 0.000000 0.000000 0.000000
									}
								}
							}
						}
					}
					JOINT RightShoulder
					{
						OFFSET -2.625389 11.175210 0.000000
						CHANNELS 3 Zrotation Yrotation Xrotation
						JOINT RightArm
						{
							OFFSET 0.000000 10.434715 -0.000000
							CHANNELS 3 Zrotation Yrotation Xrotation
							JOINT RightForeArm
							{
								OFFSET -0.000000 29.628420 0.000000
								CHANNELS 3 Zrotation Yrotation Xrotation
								JOINT RightHand
								{
									OFFSET -0.000000 22.857611 0.000000
									CHANNELS 3 Zrotation Yrotation Xrotation
									JOINT RightHandThumb1
									{
										OFFSET -2.867323 3.959563 2.944291
										CHANNELS 3 Zrotation Yrotation Xrotation
										JOINT RightHandThumb2
										{
											OFFSET -0.000000 3.350399 0.000000
											CHANNELS 3 Zrotation Yrotation Xrotation
											JOINT RightHandThumb3
											{
												OFFSET 0.000000 3.756509 -0.000000
												CHANNELS 3 Zrotation Yrotation Xrotation
												JOINT RightHandThumb4
												{
													OFFSET -0.000000 3.147345 0.000000
													CHANNELS 3 Zrotation Yrotation Xrotation
													End Site
													{
														OFFSET 0.000000 0.000000 0.000000
													}
												}
											}
										}
									}
									JOINT RightHandIndex1
									{
										OFFSET -0.086752 10.030893 2.345280
										CHANNELS 3 Zrotation Yrotation Xrotation
										JOINT RightHandIndex2
										{
											OFFSET 0.000000 4.061090 -0.000000
											CHANNELS 3 Zrotation Yrotation Xrotation
											JOINT RightHandIndex3
											{
												OFFSET 0.000000 3.248873 -0.000000
												CHANNELS 3 Zrotation Yrotation Xrotation
												JOINT RightHandIndex4
												{
													OFFSET 0.000000 2.639709 -0.000000
													CHANNELS 3 Zrotation Yrotation Xrotation
													End Site
													{
														OFFSET 0.000000 0.000000 0.000000
													}
												}
											}
										}
									}
									JOINT RightHandMiddle1
									{
										OFFSET 0.104102 9.502952 0.006768
										CHANNELS 3 Zrotation Yrotation Xrotation
										JOINT RightHandMiddle2
										{
											OFFSET 0.000000 4.568727 -0.000000
											CHANNELS 3 Zrotation Yrotation Xrotation
											JOINT RightHandMiddle3
											{
												OFFSET -0.000000 3.654981 0.000000
												CHANNELS 3 Zrotation Yrotation Xrotation
												JOINT RightHandMiddle4
												{
													OFFSET 0.000000 2.741236 0.000000
													CHANNELS 3 Zrotation Yrotation Xrotation
													End Site
													{
														OFFSET 0.000000 0.000000 0.000000
													}
												}
											}
										}
									}
									JOINT RightHandRing1
									{
										OFFSET 0.086752 8.921708 -2.267442
										CHANNELS 3 Zrotation Yrotation Xrotation
										JOINT RightHandRing2
										{
											OFFSET 0.000000 4.061090 -0.000000
											CHANNELS 3 Zrotation Yrotation Xrotation
											JOINT RightHandRing3
											{
												OFFSET -0.000000 3.654981 0.000000
												CHANNELS 3 Zrotation Yrotation Xrotation
												JOINT RightHandRing4
												{
													OFFSET 0.000000 2.741236 -0.000000
													CHANNELS 3 Zrotation Yrotation Xrotation
													End Site
													{
														OFFSET 0.000000 0.000000 0.000000
													}
												}
											}
										}
									}
									JOINT RightHandPinky1
									{
										OFFSET -0.173504 7.976997 -4.467199
										CHANNELS 3 Zrotation Yrotation Xrotation
										JOINT RightHandPinky2
										{
											OFFSET 0.000000 3.350399 0.000000
											CHANNELS 3 Zrotation Yrotation Xrotation
											JOINT RightHandPinky3
											{
												OFFSET 0.000000 2.842763 -0.000000
												CHANNELS 3 Zrotation Yrotation Xrotation
												JOINT RightHandPinky4
												{
													OFFSET -0.000000 2.639709 -0.000000
													CHANNELS 3 Zrotation Yrotation Xrotation
													End Site
													{
														OFFSET 0.000000 0.000000 0.000000
													}
												}
											}
										}
									}
									JOINT RightForeArmEnd
									{
										OFFSET 0.000000 0.000000 0.000000
										CHANNELS 3 Zrotation Yrotation Xrotation
										End Site
										{
											OFFSET 0.000000 0.000000 0.000000
										}
									}
								}
								JOINT RightArmEnd
								{
									OFFSET 0.000000 0.000000 0.000000
									CHANNELS 3 Zrotation Yrotation Xrotation
									End Site
									{
										OFFSET 0.000000 0.000000 0.000000
									}
								}
							}
						}
					}
					JOINT LeftShoulder
					{
						OFFSET 2.625389 11.175210 -0.000000
						CHANNELS 3 Zrotation Yrotation Xrotation
						JOINT LeftArm
						{
							OFFSET -0.000000 10.813635 0.000000
							CHANNELS 3 Zrotation Yrotation Xrotation
							JOINT LeftForeArm
							{
								OFFSET -0.000000 28.724781 0.000000
								CHANNELS 3 Zrotation Yrotation Xrotation
								JOINT LeftHand
								{
									OFFSET 0.644384 25.716167 -0.328871
									CHANNELS 3 Zrotation Yrotation Xrotation
									JOINT LeftHandThumb1
									{
										OFFSET 2.867323 3.959563 2.944291
										CHANNELS 3 Zrotation Yrotation Xrotation
										JOINT LeftHandThumb2
										{
											OFFSET -0.000000 3.350399 0.000000
											CHANNELS 3 Zrotation Yrotation Xrotation
											JOINT LeftHandThumb3
											{
												OFFSET -0.000000 3.756509 -0.000000
												CHANNELS 3 Zrotation Yrotation Xrotation
												JOINT LeftHandThumb4
												{
													OFFSET 0.000000 3.100000 -0.000000
													CHANNELS 3 Zrotation Yrotation Xrotation
													End Site
													{
														OFFSET 0.000000 0.000000 0.000000
													}
												}
											}
										}
									}
									JOINT LeftHandIndex1
									{
										OFFSET 0.086752 10.030893 2.345280
										CHANNELS 3 Zrotation Yrotation Xrotation
										JOINT LeftHandIndex2
										{
											OFFSET -0.000000 4.061090 0.000000
											CHANNELS 3 Zrotation Yrotation Xrotation
											JOINT LeftHandIndex3
											{
												OFFSET 0.000000 3.248873 0.000000
												CHANNELS 3 Zrotation Yrotation Xrotation
												JOINT LeftHandIndex4
												{
													OFFSET 0.000000 2.639709 -0.000000
													CHANNELS 3 Zrotation Yrotation Xrotation
													End Site
													{
														OFFSET 0.000000 0.000000 0.000000
													}
												}
											}
										}
									}
									JOINT LeftHandMiddle1
									{
										OFFSET -0.104102 9.502952 0.006768
										CHANNELS 3 Zrotation Yrotation Xrotation
										JOINT LeftHandMiddle2
										{
											OFFSET 0.000000 4.568727 -0.000000
											CHANNELS 3 Zrotation Yrotation Xrotation
											JOINT LeftHandMiddle3
											{
												OFFSET 0.000000 3.654981 0.000000
												CHANNELS 3 Zrotation Yrotation Xrotation
												JOINT LeftHandMiddle4
												{
													OFFSET -0.000000 2.741236 -0.000000
													CHANNELS 3 Zrotation Yrotation Xrotation
													End Site
													{
														OFFSET 0.000000 0.000000 0.000000
													}
												}
											}
										}
									}
									JOINT LeftHandRing1
									{
										OFFSET -0.086752 8.921708 -2.267442
										CHANNELS 3 Zrotation Yrotation Xrotation
										JOINT LeftHandRing2
										{
											OFFSET -0.000000 4.061090 -0.000000
											CHANNELS 3 Zrotation Yrotation Xrotation
											JOINT LeftHandRing3
											{
												OFFSET 0.000000 3.654981 0.000000
												CHANNELS 3 Zrotation Yrotation Xrotation
												JOINT LeftHandRing4
												{
													OFFSET -0.000000 2.741236 -0.000000
													CHANNELS 3 Zrotation Yrotation Xrotation
													End Site
													{
														OFFSET 0.000000 0.000000 0.000000
													}
												}
											}
										}
									}
									JOINT LeftHandPinky1
									{
										OFFSET 0.173504 7.976997 -4.467199
										CHANNELS 3 Zrotation Yrotation Xrotation
										JOINT LeftHandPinky2
										{
											OFFSET 0.000000 3.350399 0.000000
											CHANNELS 3 Zrotation Yrotation Xrotation
											JOINT LeftHandPinky3
											{
												OFFSET -0.000000 2.842763 -0.000000
												CHANNELS 3 Zrotation Yrotation Xrotation
												JOINT LeftHandPinky4
												{
													OFFSET -0.000000 2.639709 -0.000000
													CHANNELS 3 Zrotation Yrotation Xrotation
													End Site
													{
														OFFSET 0.000000 0.000000 0.000000
													}
												}
											}
										}
									}
									JOINT LeftForeArmEnd
									{
										OFFSET 0.000000 0.000000 0.000000
										CHANNELS 3 Zrotation Yrotation Xrotation
										End Site
										{
											OFFSET 0.000000 0.000000 0.000000
										}
									}
								}
								JOINT LeftArmEnd
								{
									OFFSET 0.000000 0.000000 0.000000
									CHANNELS 3 Zrotation Yrotation Xrotation
									End Site
									{
										OFFSET 0.000000 0.000000 0.000000
									}
								}
							}
						}
					}
				}
			}
		}
	}
	JOINT RightUpLeg
	{
		OFFSET -11.289943 0.000000 0.000000
		CHANNELS 3 Zrotation Yrotation Xrotation
		JOINT RightLeg
		{
			OFFSET -0.000000 -38.200325 -0.000000
			CHANNELS 3 Zrotation Yrotation Xrotation
			JOINT RightFoot
			{
				OFFSET -0.000000 -39.900856 -0.000000
				CHANNELS 3 Zrotation Yrotation Xrotation
				JOINT RightToeBase
				{
					OFFSET 0.000000 0.000000 15.261641
					CHANNELS 3 Zrotation Yrotation Xrotation
					JOINT RightToeBaseEnd
					{
						OFFSET 0.000000 0.000000 7.370709
						CHANNELS 3 Zrotation Yrotation Xrotation
						End Site
						{
							OFFSET 0.000000 0.000000 0.000000
						}
					}
				}
				JOINT RightLegEnd
				{
					OFFSET 0.000000 0.000000 0.000000
					CHANNELS 3 Zrotation Yrotation Xrotation
					End Site
					{
						OFFSET 0.000000 0.000000 0.000000
					}
				}
			}
			JOINT RightUpLegEnd
			{
				OFFSET 0.000000 0.000000 0.000000
				CHANNELS 3 Zrotation Yrotation Xrotation
				End Site
				{
					OFFSET 0.000000 0.000000 0.000000
				}
			}
		}
	}
	JOINT LeftUpLeg
	{
		OFFSET 11.315661 0.000000 -0.000000
		CHANNELS 3 Zrotation Yrotation Xrotation
		JOINT LeftLeg
		{
			OFFSET 0.000000 -38.200325 0.000000
			CHANNELS 3 Zrotation Yrotation Xrotation
			JOINT LeftFoot
			{
				OFFSET 0.000000 -39.900856 -0.000000
				CHANNELS 3 Zrotation Yrotation Xrotation
				JOINT LeftToeBase
				{
					OFFSET 0.000000 0.000000 15.261641
					CHANNELS 3 Zrotation Yrotation Xrotation
					JOINT LeftToeBaseEnd
					{
						OFFSET -0.000000 0.000000 7.539996
						CHANNELS 3 Zrotation Yrotation Xrotation
						End Site
						{
							OFFSET 0.000000 0.000000 0.000000
						}
					}
				}
				JOINT LeftLegEnd
				{
					OFFSET 0.000000 0.000000 0.000000
					CHANNELS 3 Zrotation Yrotation Xrotation
					End Site
					{
						OFFSET 0.000000 0.000000 0.000000
					}
				}
			}
			JOINT LeftUpLegEnd
			{
				OFFSET 0.000000 0.000000 0.000000
				CHANNELS 3 Zrotation Yrotation Xrotation
				End Site
				{
					OFFSET 0.000000 0.000000 0.000000
				}
			}
		}
	}
}
MOTION
Frames: 4
Frame Time: 0.016667
21.272701 87.601624 11.660446 -4.806156 -2.608146 -14.689533 1.998954 0.015118 8.461916 -1.501528 0.333255 2.380360 0.739427 0.243339 9.951914 -1.082522 0.692016 5.562674 18.163395 -5.993933 2.772315 1.357025 0.353570 -4.458085 -0.358403 -0.665244 -17.142796 0.000000 0.000000 0.000000 86.042694 1.547666 17.408739 38.183643 -36.445415 26.860903 -1.965669 13.174488 92.244614 -0.196705 -14.361792 5.104453 14.341382 -2.214275 38.280170 -0.000011 0.000003 -34.475552 0.000033 0.000021 -23.916401 -0.000003 -0.000014 -0.000017 26.729853 -0.058130 -7.774394 18.221478 -0.049921 -0.062836 18.429346 0.004425 -0.141483 0.000005 0.000034 -0.000008 28.253828 -0.031932 -7.865450 18.435425 -0.005779 -0.082973 18.881817 0.005561 -0.053955 -0.000008 -0.000062 0.000013 37.769451 -0.017013 -5.950771 23.973583 0.012181 0.240149 24.082693 -0.016653 0.214279 0.000006 0.003912 -0.000003 41.739498 -0.103319 -5.311898 26.641684 -0.119265 1.250875 26.285816 -0.174639 1.075640 0.001066 -0.000006 -0.000002 0.000000 0.000000 0.000000 0.000000 0.000000 0.000000 -82.972260 -0.740121 11.432981 -71.284904 33.457020 -4.317413 0.667275 -6.643257 56.590069 13.233984 -8.125232 -18.433290 -19.693003 2.035372 35.944489 -0.000021 -0.000003 -48.627140 -0.000245 -0.000012 -33.859734 0.001772 -0.000023 0.000095 -56.241203 0.065280 -13.678973 -38.590481 0.121058 0.555705 -38.971962 0.137574 0.669773 0.000045 0.001373 0.000027 -55.339161 0.061324 -9.997157 -38.440052 0.038862 0.208969 -38.647625 0.037066 0.196308 0.000190 -0.000034 0.000204 -62.722042 -0.030197 -4.366279 -43.282406 -0.042211 -0.397056 -42.988506 -0.061997 -0.279259 -0.000662 0.000004 0.000004 -64.237938 -0.100554 -0.154999 -44.303177 -0.126955 -0.839873 -44.248070 -0.136951 -0.694736 0.000023 0.000008 -0.000051 0.000000 0.000000 0.000000 0.000000 0.000000 0.000000 -4.530648 -6.499978 5.916256 -0.244868 -0.633124 23.880457 5.358629 -16.488968 23.065680 -1.013567 1.136527 -21.453863 0.000000 0.000000 0.000000 0.000000 0.000000 0.000000 0.000000 0.000000 0.000000 3.091279 -4.253572 4.838531 0.071721 -0.323919 29.201134 3.239111 11.358251 8.144351 0.636586 0.090499 -20.135496 0.000000 0.000000 0.000000 0.000000 0.000000 0.000000 0.000000 0.000000 0.000000 
21.189272 87.577065 11.635818 -4.860946 -3.496228 -14.636565 2.070496 0.020846 8.553630 -1.516358 0.329131 2.347150 0.826992 0.202289 10.123635 -1.026539 0.690918 5.558734 17.798470 -5.673161 2.524042 1.362922 0.577224 -4.529500 -0.465371 -0.709655 -17.113817 0.000000 0.000000 0.000000 85.903648 1.588631 17.520748 38.655502 -36.453167 26.587559 -2.033727 13.206843 93.490044 -0.380781 -14.495590 5.332153 14.454027 -2.216814 38.228142 -0.000011 0.000002 -34.774876 0.000032 0.000021 -24.129509 -0.000003 -0.000013 -0.000018 27.336168 -0.061920 -7.659091 18.566273 -0.046415 -0.065796 18.764755 0.007437 -0.143617 0.000005 0.000034 -0.000008 28.811949 -0.032446 -7.686226 18.774595 -0.004035 -0.085475 19.225174 0.007499 -0.054757 -0.000009 -0.000059 0.000013 38.294941 -0.015632 -5.770112 24.367237 0.009207 0.245017 24.474787 -0.019397 0.217063 0.000005 0.003990 -0.000003 42.201611 -0.101792 -5.124624 27.056953 -0.121957 1.265432 26.696976 -0.177308 1.092044 0.001105 -0.000006 -0.000002 0.000000 0.000000 0.000000 0.000000 0.000000 0.000000 -82.860985 -0.749020 11.406642 -71.044334 33.450645 -4.451599 0.674344 -6.727303 56.495815 13.433091 -7.399629 -18.254896 -19.759708 2.034554 35.913368 -0.000022 -0.000002 -48.804718 -0.000247 -0.000012 -33.982658 0.001647 -0.000023 0.000214 -56.619408 0.061984 -13.694996 -38.862625 0.113014 0.513501 -39.248264 0.129730 0.633383 0.000045 0.001357 0.000027 -55.648167 0.061123 -9.929823 -38.696781 0.035636 0.194864 -38.911831 0.034595 0.184611 0.000233 -0.000034 0.000220 -63.056038 -0.029898 -4.196645 -43.552818 -0.037204 -0.378392 -43.265438 -0.058579 -0.265519 -0.000784 0.000004 0.000004 -64.603477 -0.101669 0.152336 -44.585800 -0.114461 -0.786958 -44.533855 -0.127004 -0.659269 -0.000013 0.000008 -0.000052 0.000000 0.000000 0.000000 0.000000 0.000000 0.000000 -4.461632 -6.562333 5.569324 -0.243642 -0.642899 23.810947 5.287714 -16.276642 23.175211 -1.045406 1.132634 -21.405022 0.000000 0.000000 0.000000 0.000000 0.000000 0.000000 0.000000 0.000000 0.000000 3.296634 -3.612987 4.864210 0.072058 -0.311197 29.240780 3.022394 11.928089 8.000458 0.670596 0.075750 -20.127626 0.000000 0.000000 0.000000 0.000000 0.000000 0.000000 0.000000 0.000000 0.000000 
21.098261 87.549210 11.608614 -4.908303 -4.407304 -14.564961 2.162550 0.026538 8.648824 -1.520465 0.326103 2.317612 0.905351 0.185256 10.298208 -0.982358 0.703031 5.552899 17.414360 -5.344654 2.275983 1.371215 0.791435 -4.598601 -0.574460 -0.760853 -17.085762 0.000000 0.000000 0.000000 85.764778 1.636452 17.642708 39.215336 -36.304874 26.295286 -2.090004 13.262465 94.549667 -0.728565 -14.456743 5.680367 14.584842 -2.219074 38.170864 -0.000011 0.000002 -35.111938 0.000031 0.000021 -24.369015 -0.000003 -0.000013 -0.000018 28.032482 -0.065440 -7.515358 18.990343 -0.046784 -0.055128 19.180754 0.006767 -0.133664 0.000006 0.000033 -0.000009 29.458380 -0.033006 -7.466240 19.188229 -0.003831 -0.082585 19.641777 0.008210 -0.051322 -0.000010 -0.000058 0.000012 38.924854 -0.013986 -5.532874 24.829638 0.008812 0.242934 24.934065 -0.020391 0.214452 0.000004 0.004051 -0.000002 42.785473 -0.099787 -4.878957 27.538395 -0.116891 1.259359 27.173204 -0.173958 1.091336 0.001153 -0.000005 -0.000002 0.000000 0.000000 0.000000 0.000000 0.000000 0.000000 -82.750130 -0.754753 11.375743 -70.863571 33.402370 -4.637818 0.672925 -6.818101 56.411083 13.587634 -6.596000 -18.068167 -19.824434 2.030893 35.887726 -0.000023 -0.000002 -48.975967 -0.000247 -0.000011 -34.099689 0.001502 -0.000023 0.000263 -57.022888 0.058430 -13.673594 -39.154659 0.101965 0.460397 -39.543568 0.119030 0.586512 0.000045 0.001343 0.000027 -55.984524 0.060677 -9.832797 -38.971378 0.031152 0.176499 -39.194183 0.031192 0.169314 0.000276 -0.000033 0.000235 -63.423412 -0.029390 -4.014296 -43.845802 -0.030269 -0.354340 -43.562714 -0.053979 -0.247482 -0.000908 0.000004 0.000004 -65.018684 -0.101803 0.455414 -44.898849 -0.097153 -0.720428 -44.847198 -0.113587 -0.612107 -0.000066 0.000008 -0.000053 0.000000 0.000000 0.000000 0.000000 0.000000 0.000000 -4.424152 -6.636662 5.198591 -0.242148 -0.654504 23.737577 5.219379 -16.041559 23.252331 -1.077559 1.134067 -21.342205 0.000000 0.000000 0.000000 0.000000 0.000000 0.000000 0.000000 0.000000 0.000000 3.508722 -2.984449 4.878696 0.072823 -0.296730 29.261290 2.782633 12.494948 7.858347 0.701869 0.054878 -20.107613 0.000000 0.000000 0.000000 0.000000 0.000000 0.000000 0.000000 0.000000 0.000000 
20.995665 87.521294 11.585310 -4.946743 -5.322962 -14.481206 2.268807 0.031367 8.739776 -1.516411 0.324118 2.290129 0.978408 0.188767 10.467423 -0.949074 0.727503 5.541697 17.037279 -5.024944 2.043936 1.381815 0.990405 -4.664629 -0.680809 -0.817065 -17.064213 0.000000 0.000000 0.000000 85.626419 1.685743 17.759289 39.826092 -36.018101 26.001099 -2.130431 13.337982 95.450500 -1.210359 -14.222213 6.142706 14.735359 -2.221388 38.107185 -0.000011 0.000001 -35.489380 0.000029 0.000021 -24.637171 -0.000003 -0.000012 -0.000019 28.827618 -0.068654 -7.353081 19.502052 -0.050289 -0.033372 19.686153 0.003125 -0.113845 0.000007 0.000033 -0.000009 30.199898 -0.033615 -7.217467 19.683537 -0.004905 -0.075430 20.138971 0.007920 -0.044511 -0.000010 -0.000057 0.000012 39.663296 -0.012201 -5.250422 25.361931 0.010482 0.235209 25.461988 -0.019936 0.207415 0.000002 0.004095 -0.000002 43.497936 -0.097132 -4.585948 28.083775 -0.105690 1.236802 27.712076 -0.165837 1.076791 0.001205 -0.000005 -0.000002 0.000000 0.000000 0.000000 0.000000 0.000000 0.000000 -82.650276 -0.755887 11.339173 -70.712952 33.283768 -4.860103 0.664415 -6.917933 56.329979 13.671078 -5.752986 -17.896215 -19.887121 2.025291 35.866627 -0.000024 -0.000002 -49.139717 -0.000247 -0.000011 -34.210785 0.001335 -0.000023 0.000238 -57.443569 0.054635 -13.634272 -39.460529 0.088503 0.399014 -39.851044 0.106084 0.531337 0.000046 0.001326 0.000026 -56.344967 0.060058 -9.724446 -39.257458 0.025639 0.154801 -39.487793 0.027083 0.151220 0.000313 -0.000033 0.000249 -63.818844 -0.028610 -3.837613 -44.154438 -0.021910 -0.326287 -43.873474 -0.048532 -0.226181 -0.001026 0.000005 0.000004 -65.475578 -0.100465 0.731796 -45.233688 -0.076508 -0.644864 -45.180218 -0.097772 -0.556384 -0.000131 0.000008 -0.000054 0.000000 0.000000 0.000000 0.000000 0.000000 0.000000 -4.413881 -6.709579 4.840009 -0.240078 -0.667479 23.621891 5.152465 -15.786103 23.300570 -1.110798 1.139752 -21.266712 0.000000 0.000000 0.000000 0.000000 0.000000 0.000000 0.000000 0.000000 0.000000 3.730305 -2.367502 4.892210 0.074032 -0.280552 29.246895 2.524762 13.054431 7.735528 0.729317 0.029909 -20.077353 0.000000 0.000000 0.000000 0.000000 0.000000 0.000000 0.000000 0.000000 0.000000 
